<svg xmlns="http://www.w3.org/2000/svg" width="514" height="514" viewBox="0 0 514 514">
  <g id="clab-logo" transform="translate(-127 -255)">
    <rect id="Rectangle_5" data-name="Rectangle 5" width="514" height="514" rx="67" transform="translate(127 255)" fill="#fdb000"/>
    <g id="clab" transform="translate(-75.999 148.076)">
      <g id="title" transform="translate(255.998 211.924)">
        <path id="path318413" d="M1818.363,512.578c4.594-2.506,5.428-5.847,3.341-10.024l-16.289-35.92c-2.088-4.176-5.849-5.011-10.026-2.505-13.365,7.936-27.565,12.112-39.26,12.112-20.467,0-31.742-12.948-26.73-38.426l8.769-49.285c3.761-20.466,17.126-32.161,39.262-32.161a63.869,63.869,0,0,1,32.16,8.771c4.177,2.506,7.1,2.088,10.026-1.253l24.642-31.743c2.506-3.759,2.088-7.518-1.253-10.024-16.707-12.113-37.174-20.048-63.486-20.048-53.043,0-94.811,27.148-104,79.775l-9.188,51.791c-10.443,59.309,23.8,96.9,80.193,96.9C1771.584,530.538,1795.81,525.108,1818.363,512.578Z" transform="translate(-1664.464 -226.474)" fill="#fff"/>
        <path id="path318419" d="M2093.572,338.589l13.783-76.851c.417-5.012-1.673-7.936-6.683-7.936h-48.448c-4.179,0-7.1,2.506-7.518,6.683l-48.033,267.726c-.835,4.594.418,7.1,4.177,9.189,22.971,12.53,53.878,20.466,82.7,20.466,60.98,0,101.075-31.743,111.1-90.216l7.518-43.438c9.606-55.55-21.718-94.811-68.5-94.811C2117.381,329.4,2104.014,333.159,2093.572,338.589Zm38.009,124.465c-5.014,28.4-19.632,40.1-41.348,40.1q-14.412,0-25.062-5.012L2083.966,390.8a58.84,58.84,0,0,1,30.07-8.354c19.214,0,30.073,11.695,25.479,34.667Z" transform="translate(-1795.624 -253.802)" fill="#fff"/>
      </g>
    </g>
  </g>
</svg>
