<svg xmlns="http://www.w3.org/2000/svg" width="514" height="514" viewBox="0 0 514 514">
  <g id="clab-extension-logo" transform="translate(-127 -255)">
    <rect id="Rectangle_5" data-name="Rectangle 5" width="514" height="514" rx="67" transform="translate(127 255)" fill="#fdb000"/>
    <g id="clab" transform="translate(-75.999 148.076)">
      <g id="title" transform="translate(251.998 286.924)">
        <path id="path318413" d="M1742.91,409.372c2.342-1.277,2.767-2.981,1.7-5.109l-8.3-18.309c-1.064-2.129-2.981-2.554-5.11-1.277-6.812,4.045-14.051,6.174-20.012,6.174-10.433,0-16.18-6.6-13.625-19.586l4.47-25.122c1.917-10.432,8.729-16.393,20.013-16.393a32.556,32.556,0,0,1,16.393,4.471c2.129,1.277,3.619,1.064,5.11-.639l12.561-16.18c1.277-1.916,1.064-3.832-.639-5.11-8.516-6.174-18.948-10.219-32.36-10.219-27.037,0-48.327,13.838-53.011,40.663l-4.684,26.4c-5.323,30.231,12.134,49.392,40.876,49.392A74.21,74.21,0,0,0,1742.91,409.372Z" transform="translate(-1664.463 -263.539)" fill="#fff"/>
        <path id="path318415" d="M1829.373,407.725c1.489-.213,2.341-1.277,2.767-3.406l3.406-20.225c.427-2.555-.852-3.619-3.406-3.406h-4.258c-7.664,0-10.219-5.748-8.3-15.967l18.734-106.873c.426-2.342-.852-4.045-3.193-4.045h-24.7c-2.129,0-3.406,1.277-3.833,3.406l-18.734,105.809c-4.684,27.676,7.238,45.772,30.23,45.772A54.858,54.858,0,0,0,1829.373,407.725Z" transform="translate(-1674.366 -253.802)" fill="#fff"/>
        <path id="path318417" d="M1944.041,411.075c1.916-.639,2.769-2.129,3.193-4.045l9.58-53.863c5.749-31.934-9.154-51.095-38.108-51.095-17.243,0-33.211,3.832-43.43,10.006-1.277.852-1.277,2.342-.639,4.258l6.6,17.458c.851,2.342,2.555,2.768,4.9,1.7,6.387-2.981,15.966-4.9,25.334-4.9,13.413,0,16.394,5.748,14.477,16.18l-.425,3.406a95.027,95.027,0,0,0-18.1-1.7c-27.251,0-44.709,9.155-48.328,29.805-4.259,23.206,10.857,40.237,40.663,40.237A137.476,137.476,0,0,0,1944.041,411.075Zm-53.224-31.083c1.063-6.387,6.6-9.793,17.031-9.793a68.487,68.487,0,0,1,13.626,1.49l-2.981,18.522a75.241,75.241,0,0,1-14.688,1.7C1894.437,391.915,1889.326,388.083,1890.817,379.992Z" transform="translate(-1674.012 -263.539)" fill="#fff"/>
        <path id="path318419" d="M2045.943,297.019l7.025-39.173c.213-2.555-.853-4.045-3.406-4.045h-24.7a3.6,3.6,0,0,0-3.832,3.406l-24.483,136.466c-.426,2.342.213,3.619,2.129,4.684,11.709,6.387,27.463,10.432,42.153,10.432,31.083,0,51.521-16.18,56.63-45.985l3.832-22.141c4.9-28.315-11.07-48.327-34.915-48.327A43.92,43.92,0,0,0,2045.943,297.019Zm19.374,63.443c-2.556,14.477-10.007,20.438-21.076,20.438a29.73,29.73,0,0,1-12.774-2.555l9.58-54.714a29.992,29.992,0,0,1,15.327-4.258c9.794,0,15.329,5.961,12.987,17.67Z" transform="translate(-1687.073 -253.802)" fill="#fff"/>
      </g>
    </g>
  </g>
</svg>
