<svg xmlns="http://www.w3.org/2000/svg" width="78.865" height="29.446" viewBox="0 0 78.865 29.446">
  <g id="logo-group" transform="translate(-251.998 -286.924)">
    <g id="title" transform="translate(251.998 286.924)">
      <path id="path318413" d="M1679.367,322.458a.649.649,0,0,0,.324-.971l-1.578-3.478a.62.62,0,0,0-.971-.243,7.775,7.775,0,0,1-3.8,1.173c-1.982,0-3.074-1.254-2.589-3.721l.849-4.773a3.524,3.524,0,0,1,3.8-3.114,6.187,6.187,0,0,1,3.115.849.661.661,0,0,0,.971-.121l2.386-3.074a.66.66,0,0,0-.121-.971,10.132,10.132,0,0,0-6.148-1.941c-5.137,0-9.182,2.629-10.071,7.725l-.89,5.015c-1.011,5.743,2.306,9.384,7.766,9.384A14.1,14.1,0,0,0,1679.367,322.458Z" transform="translate(-1664.463 -294.752)" fill="#fff"/>
      <path id="path318415" d="M1794.929,283.045c.283-.04.445-.243.526-.647l.647-3.842c.081-.485-.162-.688-.647-.647h-.809c-1.456,0-1.941-1.092-1.577-3.034l3.559-20.3a.593.593,0,0,0-.607-.768h-4.692a.708.708,0,0,0-.728.647l-3.559,20.1c-.89,5.258,1.375,8.7,5.743,8.7a10.423,10.423,0,0,0,2.144-.2Z" transform="translate(-1765.48 -253.802)" fill="#fff"/>
      <path id="path318417" d="M1874.66,322.782a.928.928,0,0,0,.607-.768l1.82-10.233c1.092-6.067-1.739-9.707-7.24-9.707a16.7,16.7,0,0,0-8.251,1.9c-.243.162-.243.445-.121.809l1.254,3.317c.162.445.485.526.93.324a12.143,12.143,0,0,1,4.813-.93c2.548,0,3.115,1.092,2.75,3.074l-.081.647a18.057,18.057,0,0,0-3.438-.324c-5.177,0-8.494,1.739-9.181,5.663-.809,4.409,2.063,7.645,7.725,7.645a26.119,26.119,0,0,0,8.413-1.416Zm-10.112-5.905c.2-1.213,1.254-1.861,3.236-1.861a13.011,13.011,0,0,1,2.589.283l-.566,3.519a14.3,14.3,0,0,1-2.791.324C1865.236,319.141,1864.265,318.413,1864.548,316.876Z" transform="translate(-1823.358 -294.752)" fill="#fff"/>
      <path id="path318419" d="M2005.833,262.012l1.335-7.442c.04-.485-.162-.768-.647-.768h-4.692a.683.683,0,0,0-.728.647l-4.651,25.927a.724.724,0,0,0,.4.89,17.5,17.5,0,0,0,8.009,1.982c5.905,0,9.788-3.074,10.759-8.737l.728-4.207c.93-5.379-2.1-9.182-6.633-9.182a8.344,8.344,0,0,0-3.883.89Zm3.681,12.053c-.485,2.75-1.9,3.883-4,3.883a5.649,5.649,0,0,1-2.427-.485l1.82-10.395a5.7,5.7,0,0,1,2.912-.809c1.86,0,2.912,1.133,2.467,3.357Z" transform="translate(-1937.652 -253.802)" fill="#fff"/>
    </g>
  </g>
</svg>
